<?xml version="1.0" encoding="utf-8"?>
<!-- Generator: Adobe Illustrator 23.0.6, SVG Export Plug-In . SVG Version: 6.00 Build 0)  -->
<svg version="1.2" baseProfile="tiny-ps" id="Capa_1" xmlns="http://www.w3.org/2000/svg" xmlns:xlink="http://www.w3.org/1999/xlink"
	 viewBox="0 0 400 400" xml:space="preserve">
	<title>SECCO</title>
<g>
	<ellipse fill="none" stroke="#003C6A" stroke-width="11" stroke-miterlimit="10" cx="200.04" cy="199.54" rx="169.06" ry="89.67"/>
	<path id="XMLID_21_" fill="#003E6F" d="M93.74,230.71c-8.49,0-17.06-2.96-23.79-8.97l7.29-8.73c5.05,4.16,10.33,6.81,16.74,6.81
		c5.05,0,8.09-2,8.09-5.29v-0.16c0-3.13-1.92-4.73-11.29-7.13c-11.29-2.88-18.58-6.01-18.58-17.14v-0.16
		c0-10.17,8.17-16.9,19.62-16.9c8.17,0,15.14,2.56,19.13,6.16l-6.41,9.29c-3.27-2.48-8.16-4.56-12.88-4.56
		c-4.73,0-7.21,2.16-7.21,4.88v0.16c0,3.68,2.4,4.88,12.09,7.37c11.37,2.96,17.78,7.05,17.78,16.82v0.16
		C114.33,224.46,105.84,230.71,93.74,230.71z"/>
	<path id="XMLID_19_" fill="#003E6F" d="M121.83,229.9v-56.06h37.62v10.97h-25.37v11.37h20.96v10.97h-20.96v11.77h25.3v10.97H121.83
		z"/>
	<path id="XMLID_17_" fill="#003E6F" d="M191.86,230.87c-16.5,0-28.75-12.73-28.75-28.83v-0.16c0-15.94,12.01-28.99,29.23-28.99
		c10.57,0,16.9,3.52,22.11,8.65l-7.85,9.05c-4.33-3.93-8.73-6.33-14.34-6.33c-9.45,0-16.26,7.85-16.26,17.46v0.16
		c0,9.61,6.65,17.62,16.26,17.62c6.41,0,10.33-2.56,14.74-6.57l7.85,7.93C209.08,227.02,202.68,230.87,191.86,230.87z"/>
	<path id="XMLID_15_" fill="#003E6F" d="M244.89,230.87c-16.5,0-28.75-12.73-28.75-28.83v-0.16c0-15.94,12.01-28.99,29.23-28.99
		c10.57,0,16.9,3.52,22.11,8.65l-7.85,9.05c-4.32-3.93-8.73-6.33-14.34-6.33c-9.45,0-16.26,7.85-16.26,17.46v0.16
		c0,9.61,6.65,17.62,16.26,17.62c6.41,0,10.33-2.56,14.74-6.57l7.85,7.93C262.11,227.02,255.7,230.87,244.89,230.87z"/>
	<path id="XMLID_12_" fill="#003E6F" d="M298.93,230.87c-17.3,0-29.71-12.89-29.71-28.83v-0.16c0-15.94,12.57-28.99,29.87-28.99
		s29.71,12.89,29.71,28.83v0.16C328.8,217.81,316.23,230.87,298.93,230.87z M315.91,201.87c0-9.61-7.05-17.62-16.98-17.62
		c-9.93,0-16.82,7.85-16.82,17.46v0.16c0,9.61,7.05,17.62,16.98,17.62s16.82-7.85,16.82-17.46V201.87z"/>
</g>
</svg>
